<svg viewBox="0 0 856.6 411.1" id="icon-logo">
  <title>logo</title>

  <style type="text/css">
    .st0 { fill: #E5087E }
    .st1 { fill: #428CDF }
  </style>

  <path class="st0" d="M601.7,65.5c0.5-1,0.9-1.8,1.3-2.6c15.4-29.2,39.4-46,72.3-48.8c22.3-1.9,41,5.9,54.6,24.3 c0.2,0.3,0.5,0.5,1,1.1c-0.2-0.7-0.2-0.9-0.3-1.1c-7.8-19.8-21.7-32.5-42.8-36.8c-31.9-6.5-70,10.7-87.5,39.4 c-2.7,4.4-4.7,9.1-7.1,13.8c-0.4-0.2-1-0.5-1.6-0.8c-12.5-6.7-24.3-4.9-33.8,5.6c-9.3,10.3-12.9,22.8-12.5,36.5 c0.4,12.8,4.9,23.8,15.1,31.9c8.2,6.5,17.8,9.1,28,9.3c4.2,0.1,6.7,1.7,9.2,4.8c4.2,5.4,8.6,10.7,13.3,15.5 c5,5.2,11.1,8.9,17.9,11.5c-0.3-0.5-0.8-0.8-1.2-1.2c-4.4-4-9.4-7.4-13-12c-4.9-6.2-8.6-13.2-12.9-19.9c-1.6-2.5-3-4.8-6.3-5.6 c-28.4-7-33.1-36.4-23.7-53.9c6.1-11.6,16.3-15.6,28.6-11.3C600.8,65.2,601.1,65.3,601.7,65.5z M773.2,232.5 c1.2-1.8,2.2-3.3,3.2-4.8c6.1-8.7,11.7-17.9,18.4-26.1c6.7-8.3,14.8-15.3,27.1-15.2c-6.5-3.9-12.8-4.8-19.5-2.2 c-5.1,2-9.2,5.4-12.8,9.4c-6.9,7.3-11.8,15.9-16.6,24.6c-1.1,2-2.2,3.9-3.4,6c-5.7-5.2-12.5-6.2-19.4-7.2 c-4.1-0.6-8.3-1.2-12.4-1.7c-1.7-0.2-2.5-0.9-3.2-2.6c-2.2-6.2-6.1-11.3-11.1-15.5c-11.1-9.2-23.9-11.1-37.7-8.9 c-2.9,0.5-5.8,1.3-8.6,1.9c0.1-0.3,0.1-0.7,0.2-1c4.8,0.8,9.6,1.4,14.3,2.3c14.9,2.8,24.6,11.5,28.7,26c1.5,5.3,2,11,2,16.5 c0.1,10-1.9,19.8-5.1,29.2c-6,17.6-12.7,35-18.9,52.5c-4.4,12.3-8.7,24.7-12.6,37.2c-1.4,4.5-1.3,9.5-1.5,14.4 c-0.1,2.2,1,4.4,1.5,6.6c0.2,0,0.5-0.1,0.7-0.1c2.5-10.8,7.5-20.6,12-30.7c3.9-8.7,8.2-17.2,11.9-25.9c6-14.2,12.1-28.4,17.4-42.9 c6.4-17.7,11.4-35.8,8.9-55.3C748.4,224.9,762.1,224.4,773.2,232.5z M776.5,188.4c-0.4-1.5-2.1-2.5-4.1-3.3 c-3.6-1.5-7.3-2.8-10.8-4.6c-8.4-4.5-11.7-16.3-6.1-22.9c0.4-0.5,0.3-1.7,0-2.4c-2-5.1-1.5-6.3,3.8-7.9c0.2-0.1,0.5-0.1,0.7-0.2 c2.5-0.7,3.6-2.2,3.8-4.9c0.2-3.1,0.6-6.3,1.5-9.4c5.8-19.8,28.7-32.8,50-28.4c11,2.3,20.1,7.8,25.2,18c7.8,15.6,5.6,30.6-4.7,44.4 c-2.4,3.3-5.5,6-8.3,9.1c0.2,0,0.4,0.1,0.6,0c20.7-7.3,32.3-28.6,27.1-49.9c-3.7-15-13.4-25.2-27.2-31.4 c-36.4-16.2-71.2,13.1-67.8,46.7c0.3,2.8-0.8,3.7-4.6,3.9c1.4-3.4-0.5-5.7-2.6-8c-3.8-4.1-3.8-4.1,1.1-6.5 c4.8-2.4,6.1-5.9,3.8-10.7c-0.4-0.9-0.9-1.8-1.5-2.6c-2.3-3.2-4.7-6.3-6.9-9.5c-3.1-4.6-4.6-9.4-3-15.1c1.2-4.6,1.9-9.3,2.4-14 c0.8-6.9,0.2-13.7-2.4-20.2c-2.5-6.3-6.5-11.3-11.7-15.4c3.9,5.1,7,10.6,8.5,16.9c2,8.2,1,16.3-1,24.3c-2.8,11.6-1.6,22,7.2,30.8 c2.1,2.1,3.5,4.9,4.7,7.6c1.4,2.9,0.4,4.7-2.6,5.9c-1.9,0.7-3.8,1.4-5.5,2.4c-2.7,1.5-2.6,2.7-0.4,4.7c1.6,1.4,3.2,3,4.3,4.8 c1.5,2.3,0.6,4.2-2,4.9c-1.7,0.4-3.4,0.5-4.9,0.7c0.9,1.1,2,2.2,2.9,3.4c1.6,2.3,0.9,4.3-1.6,5.5c-0.6,0.3-1.3,0.5-1.9,0.7 c-3.8,1.3-5.2,3.5-4.8,7.4c0.1,1.7,0.4,3.3,0.5,5c0.5,6.1-2,9.5-8.1,10.1c-3.7,0.4-7.5,0-11.2-0.2c-4.4-0.3-8.8-0.8-13.2-1 c-1.8-0.1-3.6,0.4-5.1,0.7c3,0.6,6.1,1.1,9.2,1.8c5.1,1.1,10.2,2.6,15.4,3.3c3.1,0.4,6.6,0.2,9.6-0.6c6.6-1.7,9.2-6.8,7.3-13.3 c-0.5-1.6-1.1-3.2-1.5-4.8c-0.8-3.2,0-4.3,3.2-4.8c2.2-0.3,4.4-0.8,6.6-1.2c-2.7,3-4.1,6.6-3.9,10.7c0.4,7.6,5.9,14.5,13.4,16.2 c3.3,0.7,6.8,0.8,10.1,1.5C772.5,186.7,774.6,187.8,776.5,188.4z M669.7,410.2c0,0.2,0,0.5,0.1,0.7c3.6,0,7.3,0.3,10.8,0 c8.5-0.7,16.4-3.6,24.1-7.2c18.3-8.5,34.5-20.3,50.1-32.9c23-18.7,44.1-39.3,64-61.2c5.8-6.3,11.2-12.8,13.8-21.2 c1.3-4.1,2.7-8.3,3.7-12.5c4.7-19.4,6.6-39.1,6.8-59.1c0-0.3-0.1-0.7-0.2-1.6c-2.7,19.5-7.5,37.8-14.4,55.5 c-3.5,9-8,17.4-14.5,24.7c-22,24.7-45.5,47.7-70.8,69c-14.8,12.5-30.1,24.1-46.8,33.8C688,403.3,679.2,407.5,669.7,410.2z M746.8,238.6c-0.1,0.1-0.2,0.2-0.4,0.3c2.8,3.3,5.4,6.8,8.4,9.8c7.8,7.7,16.6,12.8,28.2,9c0.9,2,1.7,3.9,2.7,5.7 c2,3.3,4,6.5,6.2,9.7c1.5,2.3,1.9,4.3-0.1,6.5c-2.3,2.4-4.3,5.2-6.7,7.4c-11.8,11.1-25.4,19.8-38.7,28.9 c-12.9,8.9-25.9,17.7-38.5,27c-4.6,3.4-8.4,7.9-12.3,12.1c-1.3,1.5-2,3.6-2.9,5.4c0.2,0.1,0.4,0.2,0.6,0.4 c5.9-6.7,12.7-12.3,20.3-17c14.6-9,29.5-17.7,44.2-26.6c11.1-6.7,21.9-13.8,31.1-23c5.2-5.2,9.5-11,11.6-18.2c0.6-2,0.4-3.7-1.2-5 c-2.7-2.3-5.5-4.5-8.3-6.9c-2.5-2.1-5-4.3-7.6-6.6c14.9-8.8,30.8-32.7,32.5-48.5c-0.3,0.6-0.6,1-0.9,1.4 c-5.7,9.4-11.6,18.7-19.1,26.9c-12.2,13.3-25.8,15.5-41.4,6.3C752,242.2,749.4,240.3,746.8,238.6z M731,54.3 c-0.2-0.1-0.5-0.2-0.7-0.3c-0.5,0.8-1,1.6-1.5,2.4c-7.3,11.9-14.7,23.7-24.3,33.9c-6.1,6.5-13,11.9-22.2,13 c-3.7,0.5-7.5,0.1-11.2,0.5c-4.8,0.5-9.7,0.9-14.2,2.3c-4.7,1.4-6.8,5.4-6.1,10.2c1.4,8.9,6.8,15.6,12.1,22.3c-0.7-2.1-1.7-4-2.5-6 c-0.8-2.1-1.7-4.2-2.3-6.4c-2.1-7.7,0.3-10.9,8.2-11.3c3.2-0.1,6.5-0.1,9.8,0.1c11.1,0.6,19.9-4,27.4-11.7 c8.1-8.3,13.9-18.1,18.7-28.6C725.3,68.1,728,61.2,731,54.3z"/>
  <path class="st0" d="M601.7,65.5c-0.5-0.2-0.9-0.3-1.2-0.4c-12.3-4.3-22.4-0.3-28.6,11.3c-9.3,17.6-4.6,46.9,23.7,53.9 c3.3,0.8,4.8,3.1,6.3,5.6c4.2,6.7,8,13.7,12.9,19.9c3.6,4.6,8.6,8.1,13,12c0.4,0.4,0.9,0.7,1.2,1.2c-6.8-2.5-12.9-6.3-17.9-11.5 c-4.8-4.9-9.1-10.2-13.3-15.5c-2.4-3.1-5-4.7-9.2-4.8c-10.2-0.2-19.8-2.8-28-9.3c-10.3-8.1-14.8-19.2-15.1-31.9 c-0.4-13.7,3.2-26.2,12.5-36.5c9.5-10.4,21.3-12.2,33.8-5.6c0.6,0.3,1.2,0.6,1.6,0.8c2.4-4.7,4.4-9.4,7.1-13.8 C617.9,12.1,656-5.1,687.9,1.4c21,4.3,35,17.1,42.8,36.8c0.1,0.2,0.1,0.4,0.3,1.1c-0.5-0.6-0.8-0.8-1-1.1 c-13.7-18.3-32.3-26.2-54.6-24.3c-32.9,2.8-56.9,19.7-72.3,48.8C602.5,63.6,602.2,64.5,601.7,65.5z"/>
  <path class="st0" d="M773.2,232.5c-11.1-8.1-24.8-7.6-36.6-13.4c2.5,19.6-2.5,37.7-8.9,55.3c-5.3,14.5-11.4,28.7-17.4,42.9 c-3.7,8.8-8,17.3-11.9,25.9c-4.5,10-9.5,19.8-12,30.7c-0.2,0-0.5,0.1-0.7,0.1c-0.5-2.2-1.6-4.4-1.5-6.6c0.1-4.8,0.1-9.8,1.5-14.4 c3.8-12.5,8.2-24.9,12.6-37.2c6.2-17.5,12.9-34.9,18.9-52.5c3.2-9.4,5.2-19.2,5.1-29.2c0-5.5-0.5-11.2-2-16.5 c-4-14.5-13.8-23.2-28.7-26c-4.8-0.9-9.6-1.6-14.3-2.3c-0.1,0.3-0.1,0.7-0.2,1c2.9-0.6,5.7-1.4,8.6-1.9c13.8-2.2,26.6-0.3,37.7,8.9 c5,4.2,8.9,9.3,11.1,15.5c0.6,1.7,1.5,2.4,3.2,2.6c4.1,0.5,8.3,1.1,12.4,1.7c6.9,1,13.7,2,19.4,7.2c1.2-2.1,2.4-4.1,3.4-6 c4.7-8.7,9.7-17.3,16.6-24.6c3.7-3.9,7.7-7.4,12.8-9.4c6.7-2.6,13-1.7,19.5,2.2c-12.3-0.1-20.3,6.9-27.1,15.2 c-6.7,8.3-12.3,17.4-18.4,26.1C775.4,229.2,774.4,230.7,773.2,232.5z"/>
  <path class="st0" d="M776.5,188.4c-1.9-0.7-4-1.7-6.3-2.1c-3.3-0.7-6.8-0.8-10.1-1.5c-7.5-1.7-13-8.6-13.4-16.2 c-0.2-4.1,1.2-7.7,3.9-10.7c-2.2,0.4-4.4,0.9-6.6,1.2c-3.2,0.5-4,1.7-3.2,4.8c0.4,1.6,1,3.2,1.5,4.8c1.8,6.5-0.8,11.6-7.3,13.3 c-3.1,0.8-6.5,1-9.6,0.6c-5.2-0.7-10.3-2.2-15.4-3.3c-3.1-0.7-6.2-1.2-9.2-1.8c1.6-0.2,3.4-0.7,5.1-0.7c4.4,0.2,8.8,0.7,13.2,1 c3.7,0.2,7.5,0.6,11.2,0.2c6.1-0.6,8.6-4,8.1-10.1c-0.1-1.7-0.4-3.3-0.5-5c-0.3-4,1.1-6.1,4.8-7.4c0.6-0.2,1.3-0.4,1.9-0.7 c2.5-1.2,3.2-3.2,1.6-5.5c-0.8-1.2-1.9-2.3-2.9-3.4c1.5-0.2,3.2-0.3,4.9-0.7c2.7-0.7,3.5-2.6,2-4.9c-1.2-1.8-2.7-3.4-4.3-4.8 c-2.3-2-2.3-3.2,0.4-4.7c1.7-1,3.7-1.6,5.5-2.4c3-1.2,4-2.9,2.6-5.9c-1.3-2.7-2.7-5.5-4.7-7.6c-8.8-8.9-10.1-19.2-7.2-30.8 c2-8,2.9-16.1,1-24.3c-1.5-6.3-4.6-11.8-8.5-16.9c5.2,4.1,9.3,9.2,11.7,15.4c2.6,6.5,3.2,13.3,2.4,20.2c-0.5,4.7-1.2,9.5-2.4,14 c-1.5,5.7-0.1,10.6,3,15.1c2.2,3.2,4.6,6.3,6.9,9.5c0.6,0.8,1.1,1.7,1.5,2.6c2.3,4.8,1.1,8.3-3.8,10.7c-4.9,2.4-4.9,2.4-1.1,6.5 c2.1,2.2,4,4.6,2.6,8c3.8-0.3,4.9-1.1,4.6-3.9c-3.4-33.6,31.4-62.9,67.8-46.7c13.8,6.2,23.5,16.4,27.2,31.4 c5.3,21.3-6.4,42.6-27.1,49.9c-0.1,0.1-0.3,0-0.6,0c2.8-3,5.9-5.8,8.3-9.1c10.3-13.8,12.5-28.8,4.7-44.4 c-5.1-10.2-14.2-15.7-25.2-18c-21.3-4.4-44.2,8.6-50,28.4c-0.9,3-1.3,6.2-1.5,9.4c-0.2,2.7-1.3,4.2-3.8,4.9 c-0.2,0.1-0.5,0.1-0.7,0.2c-5.3,1.6-5.9,2.9-3.8,7.9c0.3,0.7,0.4,1.9,0,2.4c-5.6,6.7-2.4,18.4,6.1,22.9c3.4,1.8,7.2,3.1,10.8,4.6 C774.4,185.9,776.1,186.9,776.5,188.4z"/>
  <path class="st0" d="M669.7,410.2c9.5-2.7,18.4-7,26.9-11.9c16.7-9.7,32.1-21.4,46.8-33.8c25.2-21.3,48.8-44.3,70.8-69 c6.5-7.3,10.9-15.7,14.5-24.7c6.9-17.7,11.7-36,14.4-55.5c0.1,1,0.2,1.3,0.2,1.6c-0.2,19.9-2.1,39.7-6.8,59.1 c-1,4.2-2.4,8.3-3.7,12.5c-2.6,8.4-8.1,14.9-13.8,21.2c-19.9,21.9-41,42.6-64,61.2c-15.6,12.7-31.8,24.4-50.1,32.9 c-7.7,3.6-15.6,6.5-24.1,7.2c-3.6,0.3-7.2,0-10.8,0C669.7,410.7,669.7,410.5,669.7,410.2z"/>
  <path class="st0" d="M746.8,238.6c2.6,1.7,5.2,3.6,7.9,5.2c15.5,9.1,29.2,7,41.4-6.3c7.5-8.2,13.4-17.4,19.1-26.9 c0.3-0.4,0.5-0.8,0.9-1.4c-1.6,15.8-17.6,39.7-32.5,48.5c2.6,2.3,5.1,4.5,7.6,6.6c2.7,2.3,5.6,4.5,8.3,6.9c1.6,1.3,1.8,3,1.2,5 c-2.1,7.2-6.4,13-11.6,18.2c-9.2,9.2-20,16.3-31.1,23c-14.7,8.9-29.5,17.6-44.2,26.6c-7.5,4.6-14.4,10.2-20.3,17 c-0.2-0.1-0.4-0.2-0.6-0.4c0.9-1.8,1.5-4,2.9-5.4c3.9-4.2,7.7-8.7,12.3-12.1c12.6-9.3,25.6-18.2,38.5-27 c13.3-9.1,26.9-17.8,38.7-28.9c2.4-2.3,4.4-5,6.7-7.4c2-2.2,1.7-4.2,0.1-6.5c-2.2-3.2-4.2-6.4-6.2-9.7c-1.1-1.8-1.8-3.7-2.7-5.7 c-11.6,3.7-20.4-1.3-28.2-9c-3.1-3-5.6-6.5-8.4-9.8C746.5,238.8,746.7,238.7,746.8,238.6z"/>
  <path class="st0" d="M731,54.3c-2.9,6.9-5.7,13.9-8.8,20.6c-4.8,10.4-10.6,20.3-18.7,28.6c-7.5,7.7-16.4,12.2-27.4,11.7 c-3.2-0.2-6.5-0.2-9.8-0.1c-7.9,0.3-10.2,3.6-8.2,11.3c0.6,2.2,1.4,4.3,2.3,6.4c0.8,2,1.8,3.9,2.5,6c-5.3-6.7-10.8-13.5-12.1-22.3 c-0.7-4.8,1.3-8.8,6.1-10.2c4.6-1.4,9.4-1.7,14.2-2.3c3.7-0.4,7.5-0.1,11.2-0.5c9.2-1.2,16.1-6.6,22.2-13c9.6-10.2,17-22,24.3-33.9 c0.5-0.8,1-1.6,1.5-2.4C730.5,54.1,730.7,54.2,731,54.3z"/>

  <path class="st1" d="M0,215.3h80.7v15.9H18v35.1h61.4v15.9H18v53.3H0V215.3z"/>
  <path class="st1" d="M169.4,310.6h-58.9l-9.7,24.9H80.9l47.7-120.2h22.5l47.7,120.2h-19.8L169.4,310.6z M115.7,294.6h48.5 L139.8,231L115.7,294.6z"/>
  <path class="st1" d="M213.3,215.3h80.7v15.9h-62.7v35.1h61.4v15.9h-61.4v53.3h-18V215.3z"/>
  <path class="st1" d="M369,213.3c35.9,0,60.5,26.5,60.5,62.2s-24.7,62.2-60.5,62.2c-35.9,0-60.5-26.5-60.5-62.2 S333.2,213.3,369,213.3z M369,229.3c-25.8,0-42,19.6-42,46.1c0,26.3,16.2,46.1,42,46.1c25.4,0,42-19.8,42-46.1 C411,249,394.4,229.3,369,229.3z"/>
  <path class="st1" d="M491.9,289.1h-22.5v46.3h-18V215.3H502c22.9,0,38.6,14.8,38.6,36.9c0,21.6-14.6,33.2-29.9,35.1l30.8,48.1 h-20.9L491.9,289.1z M499.6,231.1h-30.3v42.2h30.3c13,0,22.3-8.5,22.3-21.1C522,239.6,512.6,231.1,499.6,231.1z"/>
  <path class="st1" d="M562.7,215.3h80.7v15.9h-62.7v35.1h61.4v15.9h-61.4v37.5h62.7v15.9h-80.7V215.3z"/>
</svg>
